<svg width="16" height="16" viewBox="0 0 16 16" fill="none" xmlns="http://www.w3.org/2000/svg">
<path d="M7.98222 10.6733C8.35555 10.8244 8.74666 10.9044 9.15555 10.9044V10.9133C9.56444 10.9133 9.95554 10.8333 10.3289 10.6822C10.7022 10.5222 11.04 10.3 11.3244 10.0155L13.1022 8.23776C13.3955 7.94443 13.6178 7.61554 13.7689 7.24221C13.92 6.86887 14 6.47777 14 6.06888C14 5.65999 13.92 5.26888 13.7689 4.89555C13.6089 4.52222 13.3866 4.18444 13.1022 3.9C12.8089 3.60666 12.48 3.38444 12.1066 3.23333C11.3689 2.92222 10.5155 2.92222 9.76888 3.23333C9.39555 3.39333 9.05777 3.61555 8.77333 3.9L7.74222 4.93999L8.68444 5.88221L9.71555 4.84222C9.87555 4.68222 10.0622 4.55777 10.2755 4.46888C10.7022 4.29111 11.1822 4.29111 11.6 4.46888C11.8133 4.55777 12 4.68222 12.16 4.84222C12.32 5.00221 12.4444 5.19777 12.5333 5.40221C12.6222 5.61555 12.6666 5.83777 12.6666 6.05999C12.6666 6.28221 12.6222 6.50443 12.5333 6.71776C12.4444 6.9311 12.32 7.11776 12.16 7.27776L10.3822 9.05553C10.2222 9.21553 10.0355 9.33998 9.82221 9.42886C9.39555 9.60664 8.92444 9.60664 8.49777 9.42886C8.28444 9.33998 8.09777 9.21553 7.93777 9.05553C7.76889 8.89553 7.64444 8.69998 7.55555 8.47776C7.46667 8.25554 7.43111 8.02443 7.43111 7.79332L7.44889 7.12665L6.11556 7.0911L6.09778 7.75776C6.08 8.17554 6.16 8.58442 6.31111 8.97553C6.46222 9.36664 6.69334 9.7222 6.98667 10.0066C7.28 10.2911 7.60889 10.5222 7.98222 10.6733Z" fill="currentColor"/>
<path d="M3.88444 13.1356C4.25777 13.2867 4.65777 13.3667 5.05777 13.3667L5.06666 13.3756C5.47554 13.3756 5.86665 13.2956 6.23998 13.1445C6.61332 12.9845 6.95109 12.7623 7.23554 12.4778L8.27553 11.4378L7.33331 10.4956L6.29332 11.5356C6.13332 11.6956 5.94665 11.8201 5.73332 11.9089C5.31554 12.0867 4.83555 12.0867 4.40888 11.9089C4.19555 11.8201 4.00888 11.6956 3.84888 11.5356C3.52888 11.2156 3.34222 10.7712 3.34222 10.3178C3.34222 9.85562 3.51999 9.42895 3.84888 9.10007L5.62665 7.3223C5.78665 7.1623 5.97332 7.03785 6.18665 6.94896C6.60443 6.77119 7.08443 6.77119 7.5022 6.94896C7.71553 7.03785 7.9022 7.1623 8.0622 7.3223C8.23109 7.4823 8.35553 7.67785 8.44442 7.90007C8.53331 8.12229 8.56886 8.34451 8.56886 8.58451L8.55109 9.25118L9.88442 9.28673L9.90219 8.62007C9.91997 8.20229 9.83997 7.79341 9.68886 7.4023C9.52886 7.01119 9.29775 6.66452 9.00442 6.37119C8.71109 6.07786 8.3822 5.85563 8.00887 5.70452C7.27109 5.39341 6.41776 5.39341 5.6711 5.70452C5.29777 5.86452 4.95999 6.08674 4.67555 6.37119L2.89777 8.14896C2.32 8.72674 2 9.49118 2 10.309C2 11.1267 2.32 11.8912 2.88889 12.4689C3.18222 12.7623 3.51111 12.9845 3.88444 13.1356Z" fill="currentColor"/>
</svg>
