<svg width="16" height="16" viewBox="0 0 16 16" fill="none" xmlns="http://www.w3.org/2000/svg">
<path d="M8 2C6.81331 2 5.65328 2.35189 4.66658 3.01118C3.67989 3.67047 2.91085 4.60754 2.45673 5.7039C2.0026 6.80025 1.88378 8.00666 2.11529 9.17054C2.3468 10.3344 2.91825 11.4035 3.75736 12.2426C4.59648 13.0818 5.66557 13.6532 6.82946 13.8847C7.99335 14.1162 9.19974 13.9974 10.2961 13.5433C11.3925 13.0891 12.3295 12.3201 12.9888 11.3334C13.6481 10.3467 14 9.18669 14 8C13.9982 6.40926 13.3654 4.8842 12.2406 3.75938C11.1158 2.63456 9.59074 2.00183 8 2ZM13.0769 8C13.0773 8.46821 13.0127 8.9342 12.8848 9.38461H10.6631C10.8046 8.46696 10.8046 7.53303 10.6631 6.61538H12.8848C13.0127 7.0658 13.0773 7.53179 13.0769 8ZM6.5 10.3077H9.5C9.20445 11.2761 8.69137 12.1641 8 12.9038C7.30889 12.1639 6.79585 11.276 6.5 10.3077ZM6.275 9.38461C6.11655 8.46834 6.11655 7.53166 6.275 6.61538H9.72962C9.88807 7.53166 9.88807 8.46834 9.72962 9.38461H6.275ZM2.92308 8C2.92268 7.53179 2.98733 7.0658 3.11519 6.61538H5.33692C5.19538 7.53303 5.19538 8.46696 5.33692 9.38461H3.11519C2.98733 8.9342 2.92268 8.46821 2.92308 8ZM9.5 5.69231H6.5C6.79555 4.72389 7.30863 3.83587 8 3.09615C8.69111 3.83607 9.20415 4.72402 9.5 5.69231ZM12.519 5.69231H10.464C10.205 4.74206 9.7685 3.84943 9.1775 3.06154C9.89157 3.23307 10.5601 3.55699 11.1373 4.01107C11.7144 4.46515 12.1866 5.03867 12.5213 5.69231H12.519ZM6.8225 3.06154C6.2315 3.84943 5.79497 4.74206 5.53596 5.69231H3.47866C3.81343 5.03867 4.28558 4.46515 4.86274 4.01107C5.43991 3.55699 6.10844 3.23307 6.8225 3.06154ZM3.47866 10.3077H5.53596C5.79497 11.2579 6.2315 12.1506 6.8225 12.9385C6.10844 12.7669 5.43991 12.443 4.86274 11.9889C4.28558 11.5348 3.81343 10.9613 3.47866 10.3077ZM9.1775 12.9385C9.7685 12.1506 10.205 11.2579 10.464 10.3077H12.5213C12.1866 10.9613 11.7144 11.5348 11.1373 11.9889C10.5601 12.443 9.89157 12.7669 9.1775 12.9385Z" fill="currentColor"/>
</svg>
