<svg width="16" height="16" viewBox="0 0 16 16" fill="none" xmlns="http://www.w3.org/2000/svg">
<path fill-rule="evenodd" clip-rule="evenodd" d="M4.56478 7.99948C4.56478 6.10502 6.10599 4.56382 8.00044 4.56382C9.89489 4.56382 11.4361 6.10502 11.4361 7.99948C11.4361 9.89385 9.89489 11.435 8.00044 11.435C6.10599 11.435 4.56478 9.89385 4.56478 7.99948ZM5.74772 8.00138C5.74772 9.24344 6.75832 10.2539 8.00039 10.2539C9.24246 10.2539 10.2531 9.24344 10.2531 8.00138C10.2531 6.75923 9.24253 5.74871 8.00039 5.74871C6.75824 5.74871 5.74772 6.75923 5.74772 8.00138Z" fill="currentColor"/>
<path d="M10.9673 3.81777C11.1283 3.65609 11.3522 3.56382 11.5801 3.56382C11.8088 3.56382 12.0328 3.65609 12.1937 3.81777C12.3554 3.97865 12.4476 4.20263 12.4476 4.43135C12.4476 4.65927 12.3554 4.88325 12.1937 5.04493C12.032 5.20582 11.8088 5.29888 11.5801 5.29888C11.3522 5.29888 11.1282 5.20582 10.9673 5.04493C10.8056 4.88325 10.7126 4.65935 10.7126 4.43135C10.7126 4.20263 10.8055 3.97865 10.9673 3.81777Z" fill="currentColor"/>
<path fill-rule="evenodd" clip-rule="evenodd" d="M5.01342 1.33594H10.9877C13.0167 1.33594 14.6674 2.98661 14.6673 5.01546V10.9898C14.6673 13.0186 13.0167 14.6693 10.9877 14.6693H5.01342C2.98458 14.6693 1.33398 13.0187 1.33398 10.9898V5.01546C1.33398 2.98661 2.98458 1.33594 5.01342 1.33594ZM10.9877 13.4882C12.3644 13.4882 13.4843 12.3683 13.4843 10.9917L13.4843 5.01735C13.4843 3.64082 12.3643 2.52083 10.9877 2.52083H5.01337C3.63683 2.52083 2.51693 3.64082 2.51693 5.01735V10.9917C2.51693 12.3683 3.63683 13.4882 5.01337 13.4882H10.9877Z" fill="currentColor"/>
</svg>
