<svg width="16" height="16" viewBox="0 0 16 16" fill="none" xmlns="http://www.w3.org/2000/svg">
<path fill-rule="evenodd" clip-rule="evenodd" d="M13.2822 3.2897C13.8755 3.44911 14.3427 3.9188 14.5013 4.51526C14.7895 5.59629 14.7895 7.85185 14.7895 7.85185C14.7895 7.85185 14.7895 10.1073 14.5013 11.1885C14.3427 11.7849 13.8755 12.2546 13.2822 12.4141C12.2068 12.7037 7.89474 12.7037 7.89474 12.7037C7.89474 12.7037 3.58263 12.7037 2.50728 12.4141C1.91402 12.2546 1.44675 11.7849 1.28817 11.1885C1 10.1073 1 7.85185 1 7.85185C1 7.85185 1 5.59629 1.28817 4.51526C1.44675 3.9188 1.91402 3.44911 2.50728 3.2897C3.58263 3 7.89474 3 7.89474 3C7.89474 3 12.2068 3 13.2822 3.2897ZM10.1929 8.10854L6.61785 10.1513V6.06557L10.1929 8.10854Z" fill="currentColor"/>
</svg>
