<svg width="114" height="51" viewBox="0 0 114 51" fill="none" xmlns="http://www.w3.org/2000/svg">
<path d="M10.2173 40.0001V10.9092H17.2485V34.2899H29.3508V40.0001H10.2173Z" fill="white"/>
<path d="M43.1754 40.412C40.8837 40.412 38.914 39.9433 37.2663 39.0058C35.628 38.0588 34.3638 36.7425 33.4737 35.0569C32.593 33.3618 32.1527 31.3969 32.1527 29.162C32.1527 26.9177 32.593 24.9527 33.4737 23.2671C34.3638 21.5721 35.628 20.2558 37.2663 19.3183C38.914 18.3713 40.8837 17.8978 43.1754 17.8978C45.467 17.8978 47.432 18.3713 49.0703 19.3183C50.718 20.2558 51.9822 21.5721 52.8629 23.2671C53.753 24.9527 54.1981 26.9177 54.1981 29.162C54.1981 31.3969 53.753 33.3618 52.8629 35.0569C51.9822 36.7425 50.718 38.0588 49.0703 39.0058C47.432 39.9433 45.467 40.412 43.1754 40.412ZM43.218 35.1705C44.0513 35.1705 44.7568 34.9149 45.3345 34.4035C45.9121 33.8921 46.3525 33.1819 46.6555 32.2728C46.968 31.3637 47.1242 30.3126 47.1242 29.1194C47.1242 27.9073 46.968 26.8467 46.6555 25.9376C46.3525 25.0285 45.9121 24.3183 45.3345 23.8069C44.7568 23.2955 44.0513 23.0399 43.218 23.0399C42.3563 23.0399 41.6271 23.2955 41.0305 23.8069C40.4434 24.3183 39.9936 25.0285 39.6811 25.9376C39.378 26.8467 39.2265 27.9073 39.2265 29.1194C39.2265 30.3126 39.378 31.3637 39.6811 32.2728C39.9936 33.1819 40.4434 33.8921 41.0305 34.4035C41.6271 34.9149 42.3563 35.1705 43.218 35.1705Z" fill="white"/>
<path d="M67.9268 48.6365C65.8529 48.6365 64.0774 48.3476 62.6001 47.77C61.1228 47.1923 59.9628 46.4016 59.12 45.3978C58.2772 44.394 57.7706 43.2577 57.6001 41.9887L64.1768 41.6194C64.2999 42.0645 64.5272 42.4527 64.8586 42.7842C65.1995 43.1156 65.6399 43.3713 66.1796 43.5512C66.7289 43.7312 67.3728 43.8211 68.1115 43.8211C69.2762 43.8211 70.2374 43.537 70.995 42.9688C71.762 42.4101 72.1456 41.43 72.1456 40.0285V36.1933H71.9041C71.6295 36.8656 71.2128 37.4669 70.6541 37.9972C70.0954 38.5276 69.3993 38.9442 68.566 39.2472C67.7421 39.5503 66.7952 39.7018 65.7251 39.7018C64.1342 39.7018 62.6759 39.3325 61.3501 38.5938C60.0338 37.8457 58.9779 36.6904 58.1825 35.1279C57.3965 33.556 57.0035 31.5342 57.0035 29.0626C57.0035 26.5152 57.4107 24.4177 58.2251 22.77C59.0395 21.1128 60.1048 19.8865 61.4211 19.091C62.7469 18.2955 64.1721 17.8978 65.6967 17.8978C66.8425 17.8978 67.8226 18.0967 68.637 18.4944C69.4609 18.8827 70.138 19.3846 70.6683 20.0001C71.1986 20.6156 71.601 21.2548 71.8757 21.9177H72.0745V18.1819H78.9921V40.0853C78.9921 41.9319 78.5281 43.4897 77.6001 44.7586C76.6721 46.0276 75.3747 46.9887 73.7081 47.6421C72.0414 48.305 70.1143 48.6365 67.9268 48.6365ZM68.1399 34.645C68.9827 34.645 69.7024 34.4224 70.299 33.9774C70.8956 33.5323 71.3548 32.8931 71.6768 32.0597C71.9988 31.2264 72.1598 30.2274 72.1598 29.0626C72.1598 27.8789 71.9988 26.8609 71.6768 26.0086C71.3643 25.1469 70.905 24.484 70.299 24.02C69.7024 23.556 68.9827 23.324 68.1399 23.324C67.2781 23.324 66.549 23.5607 65.9524 24.0342C65.3558 24.5077 64.9012 25.1753 64.5887 26.037C64.2857 26.8893 64.1342 27.8978 64.1342 29.0626C64.1342 30.2274 64.2904 31.2264 64.6029 32.0597C64.9154 32.8931 65.3652 33.5323 65.9524 33.9774C66.549 34.4224 67.2781 34.645 68.1399 34.645Z" fill="white"/>
<path d="M93.6051 40.412C91.3134 40.412 89.3437 39.9433 87.696 39.0058C86.0577 38.0588 84.7935 36.7425 83.9034 35.0569C83.0227 33.3618 82.5823 31.3969 82.5823 29.162C82.5823 26.9177 83.0227 24.9527 83.9034 23.2671C84.7935 21.5721 86.0577 20.2558 87.696 19.3183C89.3437 18.3713 91.3134 17.8978 93.6051 17.8978C95.8967 17.8978 97.8617 18.3713 99.5 19.3183C101.148 20.2558 102.412 21.5721 103.293 23.2671C104.183 24.9527 104.628 26.9177 104.628 29.162C104.628 31.3969 104.183 33.3618 103.293 35.0569C102.412 36.7425 101.148 38.0588 99.5 39.0058C97.8617 39.9433 95.8967 40.412 93.6051 40.412ZM93.6477 35.1705C94.481 35.1705 95.1865 34.9149 95.7642 34.4035C96.3418 33.8921 96.7822 33.1819 97.0852 32.2728C97.3977 31.3637 97.5539 30.3126 97.5539 29.1194C97.5539 27.9073 97.3977 26.8467 97.0852 25.9376C96.7822 25.0285 96.3418 24.3183 95.7642 23.8069C95.1865 23.2955 94.481 23.0399 93.6477 23.0399C92.7859 23.0399 92.0568 23.2955 91.4602 23.8069C90.8731 24.3183 90.4232 25.0285 90.1107 25.9376C89.8077 26.8467 89.6562 27.9073 89.6562 29.1194C89.6562 30.3126 89.8077 31.3637 90.1107 32.2728C90.4232 33.1819 90.8731 33.8921 91.4602 34.4035C92.0568 34.9149 92.7859 35.1705 93.6477 35.1705Z" fill="white"/>
</svg>
